<?xml version="1.0" encoding="UTF-8" standalone="no"?>
<svg
   xmlns:dc="http://purl.org/dc/elements/1.1/"
   xmlns:cc="http://creativecommons.org/ns#"
   xmlns:rdf="http://www.w3.org/1999/02/22-rdf-syntax-ns#"
   xmlns:svg="http://www.w3.org/2000/svg"
   xmlns="http://www.w3.org/2000/svg"
   xmlns:sodipodi="http://sodipodi.sourceforge.net/DTD/sodipodi-0.dtd"
   xmlns:inkscape="http://www.inkscape.org/namespaces/inkscape"
   viewBox="0 0 48 48"
   id="svg2"
   version="1.1"
   inkscape:version="0.91 r13725"
   sodipodi:docname="steps-release.svg">
  <metadata
     id="metadata55">
    <rdf:RDF>
      <cc:Work
         rdf:about="">
        <dc:format>image/svg+xml</dc:format>
        <dc:type
           rdf:resource="http://purl.org/dc/dcmitype/StillImage" />
        <dc:title></dc:title>
      </cc:Work>
    </rdf:RDF>
  </metadata>
  <sodipodi:namedview
     pagecolor="#ffffff"
     bordercolor="#666666"
     borderopacity="1"
     objecttolerance="10"
     gridtolerance="10"
     guidetolerance="10"
     inkscape:pageopacity="0"
     inkscape:pageshadow="2"
     inkscape:window-width="1920"
     inkscape:window-height="954"
     id="namedview53"
     showgrid="false"
     inkscape:snap-bbox="true"
     inkscape:snap-bbox-midpoints="true"
     inkscape:object-paths="true"
     inkscape:object-nodes="true"
     inkscape:snap-object-midpoints="true"
     inkscape:snap-global="false"
     inkscape:zoom="4.219378"
     inkscape:cx="-6.3303502"
     inkscape:cy="21.878936"
     inkscape:window-x="0"
     inkscape:window-y="24"
     inkscape:window-maximized="1"
     inkscape:current-layer="svg2" />
  <defs
     id="defs4">
    <linearGradient
       id="linearGradient3764"
       x1="1"
       x2="47"
       gradientUnits="userSpaceOnUse"
       gradientTransform="matrix(0,-1,1,0,23.658114,48.64718)">
      <stop
         style="stop-color:#1e94ca;stop-opacity:1"
         id="stop7" />
      <stop
         offset="1"
         style="stop-color:#21a1db;stop-opacity:1"
         id="stop9" />
    </linearGradient>
    <clipPath
       id="clipPath-815208615">
      <g
         transform="translate(0,-1004.3622)"
         id="g12">
        <path
           d="m -24 13 c 0 1.105 -0.672 2 -1.5 2 -0.828 0 -1.5 -0.895 -1.5 -2 0 -1.105 0.672 -2 1.5 -2 0.828 0 1.5 0.895 1.5 2 z"
           transform="matrix(15.333333,0,0,11.5,414.99999,878.8622)"
           style="fill:#1890d0"
           id="path14" />
      </g>
    </clipPath>
    <clipPath
       id="clipPath-826576853">
      <g
         transform="translate(0,-1004.3622)"
         id="g17">
        <path
           d="m -24 13 c 0 1.105 -0.672 2 -1.5 2 -0.828 0 -1.5 -0.895 -1.5 -2 0 -1.105 0.672 -2 1.5 -2 0.828 0 1.5 0.895 1.5 2 z"
           transform="matrix(15.333333,0,0,11.5,414.99999,878.8622)"
           style="fill:#1890d0"
           id="path19" />
      </g>
    </clipPath>
  </defs>
  <g
     id="g37">
    <g
       style="clip-path:url(#clipPath-815208615)"
       id="g39"
       clip-path="url(#clipPath-815208615)">
      <g
         transform="translate(1,1)"
         id="g41">
        <g
           style="opacity:0.1"
           id="g43">
          <!-- color: #5fad38 -->
        </g>
      </g>
    </g>
  </g>
  <g
     id="g45">
    <g
       style="clip-path:url(#clipPath-826576853)"
       id="g47"
       clip-path="url(#clipPath-826576853)">
      <!-- color: #5fad38 -->
    </g>
  </g>
  <ellipse
     style="color:#000000;display:inline;overflow:visible;visibility:visible;opacity:1;fill:#71d5ff;fill-opacity:1;fill-rule:nonzero;stroke:none;stroke-width:5.30000019;stroke-linecap:round;stroke-linejoin:round;stroke-miterlimit:4;stroke-dasharray:none;stroke-dashoffset:0;stroke-opacity:1;marker:none;enable-background:accumulate"
     id="path4186"
     cx="33.936211"
     cy="-0.56080425"
     transform="matrix(0.69532144,0.71869889,-0.71869023,0.69533039,0,0)"
     rx="22.999676"
     ry="22.999937" />
  <path
     inkscape:connector-curvature="0"
     id="path4248"
     d="M 15.774998,2.5280672 A 22.999613,23 0 0 0 8.0300975,7.4525583 C 8.2321648,8.0149712 8.2134285,8.5031092 7.3855082,8.7613916 7.390199,8.542546 7.3669293,8.3566286 7.3364225,8.1855042 A 22.999613,23 0 0 0 3.3870794,13.859304 c 1.0914787,-0.353117 2.0690283,0.585634 1.6065672,1.81601 C 6.7668037,17.392647 4.956003,12.721382 7.2120848,12.386865 8.1614814,11.566423 8.5172473,10.186727 9.5450436,9.5630536 10.861404,8.5262453 12.490078,7.6775322 13.608909,6.9650167 11.74232,5.4779658 15.580278,3.2580595 15.729186,5.2635313 16.558726,7.8543677 17.990945,5.8457061 17.119799,4.2066477 17.855413,2.6463238 15.565993,3.9201733 15.774993,2.5280672 Z m 16.929495,0.1963244 c 0.343361,0.5437884 0.838647,1.0709595 -0.199594,1.7931046 0.641,0.7257153 2.652198,-0.088389 1.505135,-1.1943125 A 22.999613,23 0 0 0 32.704493,2.7243916 Z m -0.975065,0.5497106 c -1.381528,1.3946041 1.3419,1.2873173 0,0 z m 3.573058,0.7067709 c 0.01697,1.1537181 -2.258566,1.2612561 -2.957917,1.9239882 1.581147,0.6449988 1.128834,2.8262374 -0.458083,2.0090603 -0.779219,-0.4520837 -1.595566,2.0862004 -0.981611,2.7714584 1.209083,1.191151 2.512401,0.0025 2.91211,-1.2859303 0.465054,-1.4792926 1.904504,-1.3724297 2.993909,-1.9207147 0.68398,0.8064065 1.868,1.6625261 2.084285,2.843443 1.079145,-0.6735496 0.432851,-1.5566652 -0.615143,-2.3428138 -1.639925,-1.4250444 0.896949,-0.9469783 1.302269,0.242134 1.013111,0.7193005 0.270937,2.5511338 1.779986,2.6602078 0.09194,-0.309081 0.05914,-1.1331254 0.281395,-1.6033242 a 22.999613,23 0 0 0 -6.3412,-5.2975087 z m 1.505136,4.3813243 c -1.4872,1.2999675 0.747773,2.3113936 0.153791,0.3861067 C 37.065582,8.855105 36.705959,8.2591927 36.807622,8.3621974 Z M 34.71025,9.6186789 c -0.168192,0.5271791 0.578313,0.2552199 0,0 z m 3.612323,0.7853011 c -1.124793,0.685548 1.978696,1.55676 0,0 z m -1.266277,0.291215 c -0.438512,-0.135599 -1.309919,1.045194 -2.211893,0.477726 -1.154914,0.243553 -2.338744,0.615467 -3.438907,1.112509 -0.95236,0.854548 -0.806112,2.456313 -2.218437,2.964511 -1.042024,0.834273 -1.600425,2.017051 -1.367711,3.357163 0.16938,1.295722 -1.04159,2.651742 0.09489,3.775988 0.475083,1.401672 1.470709,2.896708 2.869573,3.445507 0.456988,-0.763041 1.926903,-0.563462 3.088799,-0.559526 1.254324,-0.761038 2.02502,0.427061 3.183686,0.742765 0.413039,1.084445 -0.871841,2.245972 0.173418,3.190283 1.114948,1.049494 1.034112,2.864676 0.961978,4.276619 -0.803608,1.452414 -0.323964,3.282359 0.359922,4.613643 0.285592,1.013684 0.313718,2.07305 0.886721,2.921975 A 22.999613,23 0 0 0 47,23.999504 22.999613,23 0 0 0 45.835157,16.866352 c -0.407232,-0.642826 -0.815749,-1.297176 -0.674039,-1.812735 a 22.999613,23 0 0 0 -0.83764,-1.789833 c -0.412588,0.223489 -0.85283,0.394707 -1.492047,0.15706 -1.334113,-0.723475 -1.878145,-0.498105 -2.751778,0.431916 -0.906763,-0.809033 -2.988942,-0.985731 -2.745236,-2.470425 -0.03486,-0.450437 -0.131945,-0.641938 -0.278123,-0.68714 z M 5.3110402,17.350622 c -0.1539415,-0.004 -0.2974511,0.01642 -0.4188201,0.06544 l -0.2126836,0 -0.07852,0 C 3.3747393,18.222721 6.500935,17.952958 6.5446028,19.14045 8.0068245,18.580552 6.3886677,17.378918 5.3110469,17.350619 Z m -2.3460477,0.752579 c -0.4858431,0.01851 -0.9080624,0.257854 -1.3055411,0.543167 A 22.999613,23 0 0 0 1.171918,21.32948 c 0.6567267,0.26703 1.343786,0.545035 1.4691439,1.161591 0.1565214,1.015798 1.5521658,2.912186 2.4736555,1.573874 1.5328297,1.054147 0.228644,-1.344362 -0.7820159,-0.569344 -0.2827773,-1.19672 -0.499582,-2.392505 -1.6720087,-3.039769 -0.4900865,-1.153024 1.7900155,-1.447029 0.3042997,-2.352631 z m 5.5101031,4.492577 c -0.3452737,0.003 -0.697937,-0.0079 -1.0372349,0.0034 -1.4372265,0.298389 -1.5441412,1.434272 -1.6098407,2.676567 0.1631053,1.442339 -1.5727918,2.143166 -1.1517553,3.579664 0.090298,1.788771 1.2092778,3.37115 1.6425606,5.107728 0.9638274,1.13206 2.6432592,1.941946 2.3100543,3.66801 0.033522,1.17842 0.049153,2.361254 0.1014382,3.537126 a 22.999613,23 0 0 0 6.0401722,3.883969 c 0.142248,-0.689043 -1.474698,-1.503359 0.04253,-1.884723 1.478296,0.06097 1.32219,-2.007822 2.015572,-2.977599 0.03248,-1.870329 2.213955,-1.763308 2.597993,-3.22955 0.212404,-2.092658 0.518791,-3.997638 1.730905,-5.680344 0.198749,-0.990494 -1.397641,-2.124209 -2.270791,-2.20866 C 17.71479,29.198975 16.345518,28.316042 15.683385,27.42873 15.411157,24.957825 12.69446,25.937842 12.06779,23.773808 11.215278,22.991993 9.5807338,23.054645 8.4750989,22.595856 Z"
     style="fill:#ffffff;fill-opacity:1" />
  <path
     inkscape:connector-curvature="0"
     style="fill:#b6ffaf;fill-opacity:1"
     d="m 16.372949,2.3280805 a 22.999613,23 0 0 0 -0.647863,0.2159574 c -0.0869,0.035148 -0.172007,0.072172 -0.25849,0.1079736 a 22.999613,23 0 0 0 -1.655648,0.739493 C 13.61795,3.4854223 13.431756,3.5908378 13.241614,3.6892638 A 22.999613,23 0 0 0 11.572877,4.6447142 22.999613,23 0 0 0 9.7405388,5.956821 C 9.6798434,6.0058237 9.6207227,6.0574735 9.5605768,6.1073307 A 22.999613,23 0 0 0 8.578968,6.9711634 C 8.7721328,7.5299945 8.7944727,8.2517426 7.9801859,8.5057713 7.9848767,8.2886413 7.3782241,8.3544574 7.3388667,8.1883791 A 22.999613,23 0 0 0 7.2374285,8.2963527 C 6.8822221,8.6740795 6.5441237,9.0496854 6.2263699,9.4252226 c -0.00385,0.00452 -0.00921,0.00854 -0.013067,0.013067 a 22.999613,23 0 0 0 -2.3165996,3.402971 c -0.050878,0.0941 -0.1037837,0.18526 -0.1537908,0.281398 A 22.999613,23 0 0 0 3.549863,13.521855 c 1.0882271,-0.329542 2.4973792,0.6769 2.0384763,1.89781 1.7731571,1.717334 -0.037644,-2.95393 2.2184366,-3.288447 C 8.7561724,11.310776 9.11194,9.9310804 10.139736,9.3074065 11.456096,8.2705982 13.084769,7.4218834 14.2036,6.7093696 12.337011,5.2223187 16.17497,3.0024124 16.323877,5.0078825 17.153417,7.5987206 18.585636,5.5900573 17.71449,3.950999 18.43761,2.4171751 16.24936,3.6090467 16.372958,2.3280437 Z m 15.951157,0.6904098 c -1.381529,1.3946057 1.341899,1.287319 0,0 z m 1.341532,0.1407092 c 0.103449,0.3305602 0.03959,0.6814419 -0.56606,1.1026932 0.49177,0.5567621 1.779014,0.204778 1.838882,-0.4875416 A 22.999613,23 0 0 0 33.665638,3.1591995 Z m 2.038477,1.0732446 c -0.547448,0.6930937 -2.186938,0.8691468 -2.764868,1.4168136 1.581146,0.6449989 1.128834,2.8262391 -0.458084,2.0090621 -0.779218,-0.4520838 -1.595564,2.0861999 -0.981609,2.7714582 1.209084,1.191151 2.5124,0.0025 2.912109,-1.2859319 0.465054,-1.4792908 1.904504,-1.3724296 2.993908,-1.9207146 0.683981,0.8064065 1.868,1.6625278 2.084286,2.8434445 1.079145,-0.6735495 0.43285,-1.5566667 -0.615143,-2.3428153 -1.639926,-1.4250444 0.896948,-0.9469783 1.302269,0.2421357 1.013111,0.7193005 0.270936,2.5511316 1.779986,2.6602056 0.05143,-0.172922 0.07138,-0.50759 0.111255,-0.8507415 A 22.999613,23 0 0 0 35.704121,4.2324441 Z M 37.4023,8.1065955 C 35.9151,9.406563 38.150068,10.417989 37.55609,8.4927022 37.660259,8.5995032 37.300642,8.0035908 37.4023,8.1065955 Z M 35.304927,9.363077 c -0.168191,0.5271795 0.578314,0.2552199 0,0 z m 3.612324,0.785301 c -1.124794,0.685548 1.978695,1.55676 0,0 z m -1.266278,0.291216 c -0.438509,-0.1356 -1.309918,1.045191 -2.211893,0.477724 -1.154913,0.243553 -2.338742,0.615468 -3.438905,1.11251 -0.95236,0.854549 -0.806113,2.456313 -2.218438,2.964511 -1.042025,0.834274 -1.600424,2.01705 -1.367709,3.357161 0.169379,1.295723 -1.041591,2.651743 0.09489,3.775989 0.475082,1.401672 1.470708,2.896709 2.869573,3.445508 0.456988,-0.763041 1.926902,-0.563461 3.088798,-0.559526 1.254324,-0.761038 2.02502,0.427059 3.183686,0.742763 0.413041,1.084446 -0.871841,2.245974 0.173419,3.190285 1.114947,1.049494 1.034112,2.864674 0.961977,4.276618 -0.803608,1.452414 -0.323962,3.28236 0.359924,4.613644 0.265829,0.943537 0.328369,1.919318 0.795104,2.735464 A 22.999613,23 0 0 0 46.999171,23.999123 22.999613,23 0 0 0 44.30956,13.2405 c -0.255941,0.05381 -0.538578,0.05296 -0.883449,-0.07526 C 42.091998,12.441758 41.547966,12.667129 40.674332,13.59715 39.76757,12.788117 37.68539,12.611417 37.929097,11.126723 37.894234,10.676286 37.79715,10.484787 37.650973,10.439585 Z M 5.9057179,17.095019 c -0.1539416,-0.004 -0.2974511,0.01642 -0.4188202,0.06544 l -0.2126819,0 -0.07852,0 c -1.2262768,0.806661 1.8999189,0.536898 1.9435868,1.72439 1.4622216,-0.559898 -0.1559351,-1.761536 -1.233556,-1.789832 z m -2.3460478,0.75258 c -0.4858431,0.01851 -1.5035709,0.513075 -1.9010497,0.79839 -0.00469,0.01908 -0.00536,0.02722 -0.00988,0.0458 -0.094637,0.387923 -0.1646466,0.674599 -0.2224974,0.952179 a 22.999613,23 0 0 0 -0.1701465,1.132142 c 0.658402,0.268396 1.8547031,0.845158 1.9795801,1.459351 0.1565215,1.015798 1.5521659,2.912186 2.4736556,1.573874 C 7.2421578,24.863485 5.937972,22.464976 4.9273122,23.239994 4.6445349,22.043274 4.4277301,20.847489 3.2553035,20.200225 2.7652169,19.047201 5.0453189,18.753196 3.5596031,17.847594 Z m 5.5101031,4.492577 c -0.3452736,0.003 -0.6979369,-0.0079 -1.0372348,0.0034 -1.4372265,0.29839 -1.5441396,1.434272 -1.609839,2.676567 0.1631053,1.442339 -1.5727919,2.143166 -1.1517554,3.579664 0.090298,1.788771 1.2092761,3.37115 1.6425589,5.107728 0.9638274,1.13206 2.6432593,1.941946 2.3100544,3.66801 0.033455,1.175738 0.023387,3.126056 0.075254,4.302794 a 22.999613,23 0 0 0 5.4053981,3.344074 c 0.02327,0.01022 0.04202,0.01913 0.06544,0.02945 0.142248,-0.689043 -0.879185,-1.758582 0.638048,-2.139946 1.478296,0.06096 1.32219,-2.00782 2.015572,-2.977598 0.03248,-1.870328 2.213955,-1.763309 2.597993,-3.229551 0.212404,-2.092658 0.518791,-3.997639 1.730905,-5.680344 0.198748,-0.990494 -1.397642,-2.124207 -2.270791,-2.208658 -1.171914,0.127658 -2.541186,-0.755276 -3.203319,-1.642588 -0.272232,-2.470905 -2.988925,-1.490886 -3.615596,-3.654921 -0.852511,-0.781814 -2.487056,-0.719163 -3.5926905,-1.177951 z"
     id="path35" />
  <path
     style="color:#000000;display:inline;overflow:visible;visibility:visible;opacity:1;fill:#000000;fill-opacity:0.10465118;fill-rule:nonzero;stroke:none;stroke-width:5.30000019;stroke-linecap:round;stroke-linejoin:round;stroke-miterlimit:4;stroke-dasharray:none;stroke-dashoffset:0;stroke-opacity:1;marker:none;enable-background:accumulate"
     d="m 34.158932,3.390273 c 2.668093,3.2996559 1.702336,13.13588 -2.583707,23.685396 -4.29494,10.571416 -10.479616,18.303227 -14.693585,18.77806 A 22.999613,23 22.149537 0 0 39.991355,40.529828 22.999613,23 22.149537 0 0 40.530425,8.0069292 22.999613,23 22.149537 0 0 34.158932,3.390273 Z"
     id="ellipse4270"
     inkscape:connector-curvature="0" />
  <path
     inkscape:connector-curvature="0"
     style="color:#000000;font-style:normal;font-variant:normal;font-weight:normal;font-stretch:normal;font-size:medium;line-height:normal;font-family:sans-serif;text-indent:0;text-align:start;text-decoration:none;text-decoration-line:none;text-decoration-style:solid;text-decoration-color:#000000;letter-spacing:normal;word-spacing:normal;text-transform:none;direction:ltr;block-progression:tb;writing-mode:lr-tb;baseline-shift:baseline;text-anchor:start;white-space:normal;clip-rule:nonzero;display:inline;overflow:visible;visibility:visible;opacity:1;isolation:auto;mix-blend-mode:normal;color-interpolation:sRGB;color-interpolation-filters:linearRGB;solid-color:#000000;solid-opacity:1;fill:#d03029;fill-opacity:1;fill-rule:evenodd;stroke:none;stroke-width:2;stroke-linecap:round;stroke-linejoin:miter;stroke-miterlimit:4;stroke-dasharray:none;stroke-dashoffset:0;stroke-opacity:1;color-rendering:auto;image-rendering:auto;shape-rendering:auto;text-rendering:auto;enable-background:accumulate"
     d="m 25.394013,3.7779915 a 3.3506174,3.350561 80.944353 0 0 -2.78477,3.8337915 3.3506174,3.350561 80.944353 0 0 0.08835,0.3901761 1.6754415,1.6754828 0 0 0 -0.335636,0.2652214 l -5.540675,5.5294825 a 1.6754415,1.6754828 0 0 0 -0.265168,0.333564 3.3506174,3.350561 80.944353 0 0 -1.445771,-0.09228 3.3506174,3.350561 80.944353 0 0 -2.78477,3.833791 3.3506174,3.350561 80.944353 0 0 3.833744,2.784834 3.3506174,3.350561 80.944353 0 0 0.707352,-0.198241 1.6754415,1.6754828 0 0 0 0.297181,0.307382 l 9.634568,7.885062 a 1.6756017,1.6756429 0 0 0 0.363473,0.223992 3.3506174,3.350561 80.944353 0 0 -0.01704,1.125782 3.3506174,3.350561 80.944353 0 0 0.131794,0.538996 1.6754415,1.6754828 0 0 0 -0.320146,0.279332 l -5.0722,5.538056 a 1.6754415,1.6754828 0 0 0 -0.24645,0.347163 3.3506174,3.350561 80.944353 0 0 -1.303544,-0.05182 3.3506174,3.350561 80.944353 0 0 -2.78477,3.833791 3.3506174,3.350561 80.944353 0 0 3.833743,2.784836 3.3506174,3.350561 80.944353 0 0 2.78477,-3.83379 3.3506174,3.350561 80.944353 0 0 -0.131794,-0.538999 1.6754415,1.6754828 0 0 0 0.320146,-0.279329 l 5.072195,-5.538058 a 1.6754415,1.6754828 0 0 0 0.249679,-0.347675 3.3506174,3.350561 80.944353 0 0 1.300314,0.05232 3.3506174,3.350561 80.944353 0 0 2.78477,-3.83379 3.3506174,3.350561 80.944353 0 0 -3.833743,-2.784836 3.3506174,3.350561 80.944353 0 0 -0.716536,0.203006 1.6756017,1.6756429 0 0 0 -0.291231,-0.311643 l -9.634568,-7.88506 a 1.6754415,1.6754828 0 0 0 -0.360755,-0.227736 3.3506174,3.350561 80.944353 0 0 0.01754,-1.122552 3.3506174,3.350561 80.944353 0 0 -0.09157,-0.389662 1.6754415,1.6754828 0 0 0 0.335636,-0.265222 l 5.540675,-5.529482 a 1.6754415,1.6754828 0 0 0 0.264656,-0.336795 3.3506174,3.350561 80.944353 0 0 1.449521,0.09489 3.3506174,3.350561 80.944353 0 0 2.78477,-3.8337896 3.3506174,3.350561 80.944353 0 0 -3.833743,-2.7848338 z"
     id="path4272" />
</svg>
