<?xml version="1.0" encoding="UTF-8" standalone="no"?>
<svg
   xmlns:dc="http://purl.org/dc/elements/1.1/"
   xmlns:cc="http://creativecommons.org/ns#"
   xmlns:rdf="http://www.w3.org/1999/02/22-rdf-syntax-ns#"
   xmlns:svg="http://www.w3.org/2000/svg"
   xmlns="http://www.w3.org/2000/svg"
   xmlns:sodipodi="http://sodipodi.sourceforge.net/DTD/sodipodi-0.dtd"
   xmlns:inkscape="http://www.inkscape.org/namespaces/inkscape"
   viewBox="0 0 512 512"
   id="svg2"
   version="1.1"
   inkscape:version="0.91 r13725"
   sodipodi:docname="steps-release.svg"
   inkscape:export-filename="/home/andy/programs/qt/steps/steps.png"
   inkscape:export-xdpi="960"
   inkscape:export-ydpi="960"
   width="512"
   height="512">
  <metadata
     id="metadata55">
    <rdf:RDF>
      <cc:Work
         rdf:about="">
        <dc:format>image/svg+xml</dc:format>
        <dc:type
           rdf:resource="http://purl.org/dc/dcmitype/StillImage" />
        <dc:title></dc:title>
      </cc:Work>
    </rdf:RDF>
  </metadata>
  <sodipodi:namedview
     pagecolor="#ffffff"
     bordercolor="#666666"
     borderopacity="1"
     objecttolerance="10"
     gridtolerance="10"
     guidetolerance="10"
     inkscape:pageopacity="0"
     inkscape:pageshadow="2"
     inkscape:window-width="1916"
     inkscape:window-height="952"
     id="namedview53"
     showgrid="false"
     inkscape:snap-bbox="true"
     inkscape:snap-bbox-midpoints="true"
     inkscape:object-paths="true"
     inkscape:object-nodes="true"
     inkscape:snap-object-midpoints="true"
     inkscape:snap-global="false"
     inkscape:zoom="1"
     inkscape:cx="288.32376"
     inkscape:cy="220.14822"
     inkscape:window-x="0"
     inkscape:window-y="24"
     inkscape:window-maximized="0"
     inkscape:current-layer="g4597" />
  <defs
     id="defs4">
    <linearGradient
       id="linearGradient3764"
       x1="1"
       x2="47"
       gradientUnits="userSpaceOnUse"
       gradientTransform="matrix(0,-1,1,0,23.658114,48.64718)">
      <stop
         style="stop-color:#1e94ca;stop-opacity:1"
         id="stop7" />
      <stop
         offset="1"
         style="stop-color:#21a1db;stop-opacity:1"
         id="stop9" />
    </linearGradient>
    <clipPath
       id="clipPath-815208615">
      <g
         transform="translate(0,-1004.3622)"
         id="g12">
        <path
           d="m -24,13 c 0,1.105 -0.672,2 -1.5,2 -0.828,0 -1.5,-0.895 -1.5,-2 0,-1.105 0.672,-2 1.5,-2 0.828,0 1.5,0.895 1.5,2 z"
           transform="matrix(15.333333,0,0,11.5,414.99999,878.8622)"
           style="fill:#1890d0"
           id="path14"
           inkscape:connector-curvature="0" />
      </g>
    </clipPath>
    <clipPath
       id="clipPath-826576853">
      <g
         transform="translate(0,-1004.3622)"
         id="g17">
        <path
           d="m -24,13 c 0,1.105 -0.672,2 -1.5,2 -0.828,0 -1.5,-0.895 -1.5,-2 0,-1.105 0.672,-2 1.5,-2 0.828,0 1.5,0.895 1.5,2 z"
           transform="matrix(15.333333,0,0,11.5,414.99999,878.8622)"
           style="fill:#1890d0"
           id="path19"
           inkscape:connector-curvature="0" />
      </g>
    </clipPath>
    <filter
       inkscape:collect="always"
       style="color-interpolation-filters:sRGB"
       id="filter4616"
       x="-0.012000001"
       width="1.024"
       y="-0.011999999"
       height="1.024">
      <feGaussianBlur
         inkscape:collect="always"
         stdDeviation="2.4880688"
         id="feGaussianBlur4618" />
    </filter>
  </defs>
  <g
     id="g37"
     transform="translate(0,464)">
    <g
       id="g39"
       clip-path="url(#clipPath-815208615)">
      <g
         transform="translate(1,1)"
         id="g41">
        <g
           style="opacity:0.1"
           id="g43">
          <!-- color: #5fad38 -->
        </g>
      </g>
    </g>
  </g>
  <g
     id="g45"
     transform="translate(0,464)">
    <g
       id="g47"
       clip-path="url(#clipPath-826576853)">
      <!-- color: #5fad38 -->
    </g>
  </g>
  <g
     id="g4580">
    <g
       id="g4597"
       transform="translate(7.2999622,-7.3883548)">
      <ellipse
         ry="248.80716"
         rx="248.80659"
         transform="matrix(0.87781256,0.46676556,-0.46676672,0.87781196,4.4435477,4.5233397)"
         cy="114.96223"
         cx="342.80469"
         id="ellipse4614"
         style="color:#000000;display:inline;overflow:visible;visibility:visible;opacity:1;fill:#0080b7;fill-opacity:1;fill-rule:nonzero;stroke:none;stroke-width:5.30000019;stroke-linecap:round;stroke-linejoin:round;stroke-miterlimit:4;stroke-dasharray:none;stroke-dashoffset:0;stroke-opacity:1;marker:none;filter:url(#filter4616);enable-background:accumulate" />
      <ellipse
         style="color:#000000;display:inline;overflow:visible;visibility:visible;opacity:1;fill:#6fd4ff;fill-opacity:1;fill-rule:nonzero;stroke:none;stroke-width:5.30000019;stroke-linecap:round;stroke-linejoin:round;stroke-miterlimit:4;stroke-dasharray:none;stroke-dashoffset:0;stroke-opacity:1;marker:none;enable-background:accumulate"
         id="path4186"
         cx="342.80469"
         cy="114.96223"
         transform="matrix(0.88293744,0.46949065,-0.46949181,0.88293683,0,0)"
         rx="244.80659"
         ry="244.80716" />
      <path
         inkscape:connector-curvature="0"
         id="path4248"
         d="m 161.155,33.905324 c -30.72062,11.755985 -58.75706,29.582579 -82.434996,52.415183 2.150759,5.986167 1.951334,11.181821 -6.860865,13.930893 0.04992,-2.329281 -0.197751,-4.308172 -0.522461,-6.129642 -16.974411,17.897442 -31.14643,38.257582 -42.035928,60.390672 11.617456,-3.75842 22.022276,6.23342 17.099943,19.32921 18.873089,18.27899 -0.400674,-31.44098 23.612562,-35.00154 10.105166,-8.73258 13.891859,-23.41769 24.831494,-30.056 C 108.8558,97.748625 126.19104,88.715037 138.09963,81.131239 118.23207,65.303407 159.08244,41.675176 160.66738,63.020955 c 8.82944,27.576328 24.07366,6.196595 14.80138,-11.249197 7.82971,-16.607807 -16.53837,-3.049229 -14.31382,-17.866434 z m 180.19377,2.089587 c 3.65466,5.78798 8.92638,11.399061 -2.12443,19.085466 6.82266,7.724297 28.22941,-0.94091 16.02032,-12.712078 -4.56448,-2.268613 -9.19871,-4.394112 -13.89589,-6.373388 z m -10.37837,5.850991 c -14.70468,14.843921 14.28288,13.70195 0,0 z m 40.53083,17.522704 c 0.18063,12.27994 -26.53967,3.424572 -33.98341,10.478524 16.82938,6.865237 12.01506,30.081874 -4.87573,21.38399 -8.29383,-4.811839 -16.98285,22.20505 -10.44805,29.49881 12.86921,12.67833 26.74144,0.0213 30.99585,-13.68716 4.94993,-15.745232 20.27112,-14.607838 31.8665,-20.443609 7.28013,8.583143 19.88258,17.695499 22.18467,30.264949 11.48618,-7.16912 4.60717,-16.56885 -6.54745,-24.936461 -17.45499,-15.16781 9.54693,-10.079339 13.86106,2.577285 10.78333,7.656066 2.8838,27.153666 18.94578,28.314686 0.97859,-3.28978 0.62947,-12.06078 2.9951,-17.06549 C 417.58569,83.038556 401.71864,71.935162 371.50123,59.368606 Z m 13.52034,36.633908 c -15.82943,13.836486 7.95912,24.601926 1.63691,4.109566 1.10875,1.13675 -2.71899,-5.205982 -1.63691,-4.109566 z m 16.1248,21.732256 c -11.97205,7.29684 21.0608,16.56981 0,0 z m -13.47797,3.09957 c -4.66743,-1.44319 -13.94249,11.12488 -23.5429,5.08486 -12.29265,2.59229 -24.89307,6.55092 -36.60296,11.84131 -10.13671,9.09564 -8.58008,26.14442 -23.61255,31.55358 -11.09107,8.87979 -17.03457,21.46904 -14.55761,35.73287 1.80284,13.79147 -11.08645,28.22464 1.00999,40.19081 5.05667,14.91906 15.6539,30.83194 30.54309,36.67324 4.86408,-8.12163 20.50953,-5.99734 32.87649,-5.95551 13.35075,-8.10034 21.55386,4.54553 33.88645,7.90588 4.39629,11.54254 -9.27969,23.90561 1.84582,33.95663 11.86726,11.17065 11.00686,30.49102 10.23908,45.5194 -8.55343,15.45913 -3.4482,34.93671 3.83093,49.10656 3.03978,10.7895 1.83914,15.06509 7.93806,24.10091 51.15587,-46.32383 71.88276,-96.58865 71.98468,-165.6024 2.2739,-33.05036 -4.90573,-108.05168 -34.36932,-121.09692 -14.2,-7.70046 -19.99056,-5.30167 -29.28932,4.59726 -9.65138,-8.61114 -31.81363,-10.49189 -29.21968,-26.29471 -0.37104,-4.79428 -1.40439,-6.83256 -2.96028,-7.31377 z M 49.778963,191.67327 c -1.638519,-0.0426 -3.166003,0.17456 -4.457828,0.6961 l -2.263757,0 -0.835749,0 c -13.052221,8.58591 20.222309,5.71465 20.6871,18.35403 15.563562,-5.95945 -1.659739,-18.74934 -13.129695,-19.05056 z m -24.970809,8.01029 c -5.171206,0.19691 -9.665214,2.74461 -13.895889,5.78138 -2.2930457,9.40846 -4.025823,18.9447 -5.1891968,28.55843 6.9900528,2.84221 14.3029588,5.80118 15.6372408,12.36371 1.665979,10.81195 16.520907,30.99671 26.329038,16.75203 16.315098,11.22004 2.433636,-14.30918 -8.323603,-6.06003 -3.009819,-12.73763 -5.31744,-25.46524 -17.796488,-32.35464 -5.216372,-12.27249 19.052526,-15.40187 3.238898,-25.04088 z m 58.64831,47.81803 c -3.675016,0.0319 -7.428686,-0.0851 -11.040097,0.0319 -15.297519,3.176 -16.435495,15.26606 -17.134786,28.48882 1.736057,15.35184 -16.740446,22.81132 -12.259027,38.10111 0.961112,19.03927 12.871284,35.88178 17.483049,54.36555 10.258765,12.0494 28.134263,20.66958 24.587704,39.04149 0.356801,12.54284 0.523173,25.13262 1.079685,37.64832 19.133408,17.06127 40.827868,31.0113 64.290248,41.34012 1.51406,-7.33399 -15.69636,-16.00143 0.45268,-20.06054 15.73465,0.64927 14.0731,-21.3708 21.4533,-31.69292 0.34571,-19.90738 23.56484,-18.76828 27.65246,-34.37462 2.26078,-22.27381 5.52189,-42.54999 18.42337,-60.46028 2.11544,-10.54266 -14.87618,-22.60962 -24.1698,-23.50849 -12.47354,1.35825 -27.04776,-8.03956 -34.09536,-17.4839 -2.89753,-26.29971 -31.81345,-15.8687 -38.48359,-38.90216 -9.07394,-8.32151 -26.471669,-7.65468 -38.239801,-12.53783 z"
         style="fill:#8c9500;fill-opacity:1"
         sodipodi:nodetypes="ccccccccccccccccccccccccccccccccccccccccccccccccccccccccccccccccccccccccccccccccccccccc" />
      <path
         inkscape:connector-curvature="0"
         style="fill:#b6ffaf;fill-opacity:1"
         d="m 167.51946,31.776675 c -2.30982,0.732041 -4.60864,1.498335 -6.89571,2.29863 -0.92495,0.373597 -1.83081,0.768481 -2.75131,1.149209 -5.9753,2.390985 -11.85398,5.016681 -17.62235,7.870968 -2.05423,0.999451 -4.03604,2.121731 -6.05987,3.169292 -6.05973,3.140775 -11.98546,6.533606 -17.76166,10.169598 -6.72531,4.333768 -13.23412,8.994632 -19.503,13.965809 -0.646024,0.521545 -1.275296,1.071296 -1.915476,1.601995 -3.569107,2.965166 -7.05319,6.03121 -10.448025,9.194415 2.056003,5.948063 2.293784,13.630211 -6.373303,16.33405 0.04992,-2.311084 -6.407148,-1.61051 -6.826059,-3.378229 -0.361128,0.38191 -0.721025,0.764981 -1.079686,1.149209 -3.780738,4.020474 -7.379382,8.018389 -10.761482,12.015439 -0.04098,0.0532 -0.09803,0.0958 -0.139083,0.13944 -9.285246,11.31217 -17.537415,23.4342 -24.65737,36.22046 -0.541534,1.00158 -1.10465,1.97186 -1.636915,2.99516 -0.698563,1.40969 -1.38352,2.82609 -2.054776,4.24899 11.582847,-3.50765 26.581548,7.20467 21.697088,20.19977 18.873089,18.27898 -0.400674,-31.44098 23.612545,-35.00143 10.105165,-8.73258 13.891876,-23.41781 24.831512,-30.05601 14.01104,-11.035577 31.34627,-20.069165 43.25486,-27.652964 -19.86756,-15.827832 20.98282,-39.456063 22.56776,-18.110283 8.82943,27.576328 24.07365,6.196595 14.80137,-11.249197 7.69673,-16.325641 -15.59452,-3.639641 -14.27897,-17.274428 z m 169.78056,7.348571 c -14.70469,14.84392 14.28287,13.701949 0,0 z m 14.27897,1.497686 c 1.10109,3.518408 0.42138,7.253097 -6.02502,11.736789 5.23429,5.92603 18.93543,2.179633 19.57265,-5.189268 -4.44772,-2.320811 -8.96573,-4.504349 -13.54763,-6.547521 z m 21.69709,11.423329 c -5.82691,7.377203 -23.27728,9.251041 -29.42864,15.080319 16.82937,6.865237 12.01506,30.081874 -4.87574,21.38399 -8.29382,-4.811839 -16.98283,22.20505 -10.44803,29.49881 12.86922,12.67834 26.74143,0.0213 30.99584,-13.68716 4.94993,-15.745232 20.27112,-14.607838 31.86649,-20.443716 7.28014,8.58325 19.88258,17.695606 22.18468,30.265056 11.48618,-7.16912 4.60716,-16.568854 -6.54745,-24.936461 -17.455,-15.16781 9.54692,-10.079445 13.86106,2.577285 10.78333,7.65607 2.88379,27.153666 18.94578,28.314576 0.54741,-1.84052 0.75975,-5.40267 1.18417,-9.05508 C 422.26708,87.368181 399.30115,67.365628 373.27615,52.046261 Z m 18.07511,41.235703 c -15.82943,13.836486 7.95907,24.601926 1.6369,4.109563 1.10875,1.136755 -2.71893,-5.205979 -1.6369,-4.109563 z m 16.1248,21.732256 c -11.97206,7.29684 21.06079,16.56981 0,0 z m -13.47798,3.09957 c -4.6674,-1.44329 -13.94248,11.12477 -23.5429,5.08486 -12.29264,2.59229 -24.89305,6.55092 -36.60294,11.84131 -10.13671,9.09564 -8.58009,26.14442 -23.61256,31.55359 -11.09108,8.87978 -17.03456,21.46903 -14.55759,35.73286 1.80283,13.79136 -11.08646,28.22454 1.00999,40.19081 5.05667,14.91906 15.65389,30.83194 30.54309,36.67324 4.86408,-8.12163 20.50952,-5.99734 32.87648,-5.95551 13.35075,-8.10034 21.55386,4.54553 33.88645,7.90577 4.39631,11.54265 -9.27968,23.90572 1.84583,33.95674 11.86725,11.17054 11.00686,30.49092 10.23907,45.5194 -8.55343,15.45913 -3.44818,34.93672 3.83095,49.10656 2.82942,10.04284 3.49509,20.42882 8.46291,29.11564 47.98215,-46.14085 75.10556,-109.8323 75.12135,-176.40063 -0.0599,-39.93444 -9.88807,-79.24793 -28.62762,-114.51237 -2.72418,0.57264 -5.7325,0.56412 -9.40323,-0.80148 -14.2,-7.70056 -19.99056,-5.30177 -29.28932,4.59716 -9.65138,-8.61114 -31.81364,-10.49189 -29.21967,-26.29471 -0.37105,-4.79428 -1.40442,-6.83256 -2.96029,-7.31366 z M 56.10858,188.95272 c -1.63852,-0.0426 -3.166003,0.17456 -4.457829,0.6961 l -2.263739,0 -0.835749,0 c -13.052217,8.58591 20.222314,5.71465 20.687105,18.35403 15.563561,-5.95945 -1.659738,-18.74944 -13.129695,-19.05056 z m -24.97081,8.01029 c -5.171206,0.19691 -16.003674,5.46101 -20.23435,8.49789 -0.04992,0.2033 -0.05705,0.28951 -0.10516,0.48749 -1.0072955,4.12893 -1.7524621,7.18029 -2.3682131,10.13479 -0.7035569,4.0011 -1.3074111,8.0191 -1.8110015,12.05025 7.0078846,2.85679 19.7410466,8.99569 21.0702096,15.53299 1.66598,10.81196 16.520908,30.99671 26.329039,16.75193 16.315055,11.22025 2.433592,-14.30896 -8.323646,-6.05993 -3.009819,-12.73762 -5.317441,-25.46524 -17.796488,-32.35464 -5.216373,-12.27249 19.052525,-15.40176 3.238897,-25.04087 z m 58.64831,47.81803 c -3.675015,0.0319 -7.428685,-0.0851 -11.040096,0.0319 -15.297519,3.176 -16.435478,15.26606 -17.134768,28.48872 1.736057,15.35194 -16.740447,22.81142 -12.259028,38.10121 0.961112,19.03927 12.871266,35.88178 17.483031,54.36544 10.258764,12.04951 28.134264,20.66969 24.587705,39.04149 0.356087,12.51432 0.248926,33.27309 0.800987,45.79805 17.438209,14.47015 36.801019,26.44903 57.533849,35.59354 0.24768,0.10857 0.44725,0.2033 0.69653,0.31293 1.51405,-7.33399 -9.35785,-18.71794 6.79124,-22.77705 15.73465,0.64927 14.0731,-21.37079 21.4533,-31.69291 0.34571,-19.90738 23.56484,-18.76828 27.65246,-34.37462 2.26078,-22.27381 5.52189,-42.54999 18.42337,-60.46039 2.11542,-10.54255 -14.87619,-22.60951 -24.1698,-23.50838 -12.47359,1.35868 -27.04782,-8.03903 -34.09541,-17.48336 -2.89758,-26.29982 -31.81345,-15.86871 -38.4836,-38.90217 -9.07394,-8.32151 -26.47167,-7.65468 -38.239794,-12.53783 z"
         id="path35"
         sodipodi:nodetypes="ccccccccccccccccccccccccccccccccccccccccccccccccccccccccccccccccccccccccccccccccccccccccccccccccccccccccc" />
      <path
         style="color:#000000;display:inline;overflow:visible;visibility:visible;opacity:1;fill:#000000;fill-opacity:0.18421052;fill-rule:nonzero;stroke:none;stroke-width:5.30000019;stroke-linecap:round;stroke-linejoin:round;stroke-miterlimit:4;stroke-dasharray:none;stroke-dashoffset:0;stroke-opacity:1;marker:none;enable-background:accumulate"
         d="m 303.20932,24.025023 c 58.5472,23.820032 99.9038,132.958787 81.468,252.748557 C 366.20326,396.81199 297.7151,496.09024 228.74037,506.25973 319.06041,513.68515 406.09328,470.60509 454.96136,394.28345 527.78292,280.36405 494.46568,128.97981 380.5461,56.161359 356.80446,41.086362 330.64279,30.215232 303.20932,24.025023 Z"
         id="ellipse4270"
         inkscape:connector-curvature="0"
         sodipodi:nodetypes="cscccc" />
      <g
         id="g4299"
         transform="matrix(16.819637,-1.0730272,1.0730271,16.81964,-430.81251,-114.36464)"
         style="fill:#dd5d40;fill-opacity:1">
        <path
           style="color:#000000;font-style:normal;font-variant:normal;font-weight:normal;font-stretch:normal;font-size:medium;line-height:normal;font-family:sans-serif;text-indent:0;text-align:start;text-decoration:none;text-decoration-line:none;text-decoration-style:solid;text-decoration-color:#000000;letter-spacing:normal;word-spacing:normal;text-transform:none;direction:ltr;block-progression:tb;writing-mode:lr-tb;baseline-shift:baseline;text-anchor:start;white-space:normal;clip-rule:nonzero;display:inline;overflow:visible;visibility:visible;opacity:1;isolation:auto;mix-blend-mode:normal;color-interpolation:sRGB;color-interpolation-filters:linearRGB;solid-color:#000000;solid-opacity:1;fill:#dd5d40;fill-opacity:1;fill-rule:evenodd;stroke:none;stroke-width:1.51568305;stroke-linecap:round;stroke-linejoin:miter;stroke-miterlimit:4;stroke-dasharray:none;stroke-dashoffset:0;stroke-opacity:1;color-rendering:auto;image-rendering:auto;shape-rendering:auto;text-rendering:auto;enable-background:accumulate"
           d="m 41.863281,14.742188 a 0.75791731,0.75791731 0 0 0 -0.203125,0.02539 c -3.769605,0.966157 -6.005506,3.031118 -7.478515,5.427734 a 0.75791731,0.75791731 0 1 0 1.291015,0.792969 c 1.327023,-2.159093 3.144989,-3.875538 6.564453,-4.751953 a 0.75791731,0.75791731 0 0 0 -0.173828,-1.49414 z"
           id="path4286"
           inkscape:connector-curvature="0" />
        <path
           style="color:#000000;font-style:normal;font-variant:normal;font-weight:normal;font-stretch:normal;font-size:medium;line-height:normal;font-family:sans-serif;text-indent:0;text-align:start;text-decoration:none;text-decoration-line:none;text-decoration-style:solid;text-decoration-color:#000000;letter-spacing:normal;word-spacing:normal;text-transform:none;direction:ltr;block-progression:tb;writing-mode:lr-tb;baseline-shift:baseline;text-anchor:start;white-space:normal;clip-rule:nonzero;display:inline;overflow:visible;visibility:visible;opacity:1;isolation:auto;mix-blend-mode:normal;color-interpolation:sRGB;color-interpolation-filters:linearRGB;solid-color:#000000;solid-opacity:1;fill:#dd5d40;fill-opacity:1;fill-rule:evenodd;stroke:none;stroke-width:1.51568305;stroke-linecap:round;stroke-linejoin:miter;stroke-miterlimit:4;stroke-dasharray:none;stroke-dashoffset:0;stroke-opacity:1;color-rendering:auto;image-rendering:auto;shape-rendering:auto;text-rendering:auto;enable-background:accumulate"
           d="m 36.117188,21.320312 a 0.75791731,0.75791731 0 0 0 -0.525391,1.269532 l 4.943359,5.548828 a 0.75803557,0.75803557 0 1 0 1.13086,-1.009766 l -4.94336,-5.548828 a 0.75791731,0.75791731 0 0 0 -0.605468,-0.259766 z"
           id="path4288"
           inkscape:connector-curvature="0" />
        <path
           style="color:#000000;font-style:normal;font-variant:normal;font-weight:normal;font-stretch:normal;font-size:medium;line-height:normal;font-family:sans-serif;text-indent:0;text-align:start;text-decoration:none;text-decoration-line:none;text-decoration-style:solid;text-decoration-color:#000000;letter-spacing:normal;word-spacing:normal;text-transform:none;direction:ltr;block-progression:tb;writing-mode:lr-tb;baseline-shift:baseline;text-anchor:start;white-space:normal;clip-rule:nonzero;display:inline;overflow:visible;visibility:visible;opacity:1;isolation:auto;mix-blend-mode:normal;color-interpolation:sRGB;color-interpolation-filters:linearRGB;solid-color:#000000;solid-opacity:1;fill:#dd5d40;fill-opacity:1;fill-rule:evenodd;stroke:none;stroke-width:1.51568305;stroke-linecap:round;stroke-linejoin:miter;stroke-miterlimit:4;stroke-dasharray:none;stroke-dashoffset:0;stroke-opacity:1;color-rendering:auto;image-rendering:auto;shape-rendering:auto;text-rendering:auto;enable-background:accumulate"
           d="m 42.445312,28.359375 a 0.75791731,0.75791731 0 0 0 -0.669921,0.386719 c -1.526899,2.626583 -3.634433,4.104915 -6.214844,4.945312 a 0.75791731,0.75791731 0 1 0 0.46875,1.441406 c 2.856749,-0.930396 5.344461,-2.679695 7.056641,-5.625 a 0.75791731,0.75791731 0 0 0 -0.640626,-1.148437 z"
           id="path4290"
           inkscape:connector-curvature="0" />
        <circle
           r="2"
           cy="20.591677"
           cx="34.826431"
           id="circle4292"
           style="color:#000000;display:inline;overflow:visible;visibility:visible;opacity:1;fill:#dd5d40;fill-opacity:1;fill-rule:nonzero;stroke:none;stroke-width:0.5;stroke-linecap:round;stroke-linejoin:round;stroke-miterlimit:4;stroke-dasharray:none;stroke-dashoffset:0;stroke-opacity:1;marker:none;enable-background:accumulate" />
        <circle
           style="color:#000000;display:inline;overflow:visible;visibility:visible;opacity:1;fill:#dd5d40;fill-opacity:1;fill-rule:nonzero;stroke:none;stroke-width:0.5;stroke-linecap:round;stroke-linejoin:round;stroke-miterlimit:4;stroke-dasharray:none;stroke-dashoffset:0;stroke-opacity:1;marker:none;enable-background:accumulate"
           id="circle4294"
           cx="41.848503"
           cy="15.502581"
           r="2"
           inkscape:transform-center-x="-1.0893061"
           inkscape:transform-center-y="-0.75413499" />
        <circle
           r="2"
           cy="29.126875"
           cx="42.430508"
           id="circle4296"
           style="color:#000000;display:inline;overflow:visible;visibility:visible;opacity:1;fill:#dd5d40;fill-opacity:1;fill-rule:nonzero;stroke:none;stroke-width:0.5;stroke-linecap:round;stroke-linejoin:round;stroke-miterlimit:4;stroke-dasharray:none;stroke-dashoffset:0;stroke-opacity:1;marker:none;enable-background:accumulate" />
        <circle
           style="color:#000000;display:inline;overflow:visible;visibility:visible;opacity:1;fill:#dd5d40;fill-opacity:1;fill-rule:nonzero;stroke:none;stroke-width:0.5;stroke-linecap:round;stroke-linejoin:round;stroke-miterlimit:4;stroke-dasharray:none;stroke-dashoffset:0;stroke-opacity:1;marker:none;enable-background:accumulate"
           id="circle4298"
           cx="35.794666"
           cy="34.411392"
           r="2" />
      </g>
    </g>
  </g>
</svg>
